# xmcd
#
# Track frame offsets:
#	150
#	16640
#	29735
#	42292
#	59670
#	71012
#	81665
#	96442
#	107617
#	122865
#	136007
#	151687
#	166967
#	183670
#	201272
#	218585
#	233012
#	249392
#
# Disc length: 3523 seconds
#
# Revision: 5
# Processed by: cddbd v1.5.2PL0 Copyright (c) Steve Scherf et al.
# Submitted via: audiograbber 1.83.01
#
DISCID=f90dc112
DTITLE=Olivia Newton-John - Simply The Best - I Honestly Love You - Her Greates
DTITLE=t Hits
DYEAR=1996
DGENRE=Oldies
TTITLE0=I Honestly Love You
TTITLE1=If Not For You
TTITLE2=Long Live Love
TTITLE3=The Air That I Breathe
TTITLE4=Heartbreaker
TTITLE5=Help Me Make It Through The Night
TTITLE6=Banks Of Ohio
TTITLE7=If
TTITLE8=If We Only Have Love
TTITLE9=Loving Arms
TTITLE10=No Regrets
TTITLE11=What Is Life?
TTITLE12=If You Could Read My Mind
TTITLE13=Angel Of The Morning
TTITLE14=Country Girl
TTITLE15=Music Makes My Day
TTITLE16=Amoureuse
TTITLE17=Take Me Home Country Roads
EXTD=
EXTT0=1974
EXTT1=1971
EXTT2=1974
EXTT3=1975
EXTT4=1974
EXTT5=1971
EXTT6=1971
EXTT7=1971
EXTT8=1972
EXTT9=1975
EXTT10=1971
EXTT11=1972
EXTT12=1971
EXTT13=1972
EXTT14=1974
EXTT15=1974
EXTT16=1974
EXTT17=1972
PLAYORDER=
